<svg width="463" height="133" viewBox="0 0 463 133" fill="#515151" xmlns="http://www.w3.org/2000/svg">
<path d="M74.7104 133L51.0426 82.445L28.3253 133H0L34.8839 65.6559L0.570309 2.25106H29.0857L52.4684 52.1495L75.0906 2.25106H103.036L68.437 68.0007L103.986 133H74.7104Z" />
<path d="M204.579 114.054H180.911H157.243L150.209 133H123.595L179.675 0H181.576L237.847 133H211.993L204.579 114.054ZM204.579 114.054L183.668 60.2158L180.436 49.7109L177.394 60.2158L157.243 114.054H180.911H204.579Z" />
<path d="M336.173 23.4485H305.567V133H281.043V23.4485H250.437V2.25106H336.173V23.4485Z" />
<path d="M429.732 114.054H382.396L375.363 133H348.748L404.829 0H406.73L463 133H437.146L429.732 114.054ZM429.732 114.054L408.821 60.2158L405.589 49.7109L402.547 60.2158L382.396 114.054H429.732Z" />
</svg>
